<svg xmlns="http://www.w3.org/2000/svg" xmlns:xlink="http://www.w3.org/1999/xlink" width="1080" zoomAndPan="magnify" viewBox="0 0 810 809.999993" height="1080" preserveAspectRatio="xMidYMid meet" version="1.0"><defs><g/><clipPath id="cda22751a5"><rect x="0" width="666" y="0" height="206"/></clipPath><clipPath id="a4fc0bf300"><rect x="0" width="655" y="0" height="120"/></clipPath></defs><rect x="-81" width="972" fill="#ffffff" y="-80.999999" height="971.999992" fill-opacity="1"/><rect x="-81" width="972" fill="#ffffff" y="-80.999999" height="971.999992" fill-opacity="1"/><g transform="matrix(1, 0, 0, 1, 72, 265)"><g clip-path="url(#cda22751a5)"><g fill="#000000" fill-opacity="1"><g transform="translate(0.702803, 164.034817)"><g><path d="M 7.546875 0 L 7.546875 -122.3125 L 59.6875 -122.3125 L 70.6875 -84.0625 C 71.613281 -80.78125 72.675781 -76.507812 73.875 -71.25 C 75.082031 -66 76.300781 -60.375 77.53125 -54.375 C 78.769531 -48.382812 79.894531 -42.640625 80.90625 -37.140625 C 81.914062 -31.640625 82.691406 -26.976562 83.234375 -23.15625 L 76.515625 -23.15625 C 77.109375 -26.976562 77.898438 -31.640625 78.890625 -37.140625 C 79.878906 -42.640625 80.972656 -48.382812 82.171875 -54.375 C 83.378906 -60.375 84.582031 -66 85.78125 -71.25 C 86.988281 -76.507812 88.054688 -80.78125 88.984375 -84.0625 L 99.828125 -122.3125 L 151.953125 -122.3125 L 151.953125 0 L 118.453125 0 L 118.453125 -47.28125 C 118.453125 -50.070312 118.519531 -53.753906 118.65625 -58.328125 C 118.800781 -62.898438 118.953125 -67.921875 119.109375 -73.390625 C 119.273438 -78.859375 119.425781 -84.367188 119.5625 -89.921875 C 119.695312 -95.484375 119.765625 -100.617188 119.765625 -105.328125 L 122.15625 -105.328125 C 121.113281 -100.234375 119.945312 -94.910156 118.65625 -89.359375 C 117.375 -83.804688 116.078125 -78.375 114.765625 -73.0625 C 113.453125 -67.75 112.191406 -62.863281 110.984375 -58.40625 C 109.785156 -53.945312 108.75 -50.238281 107.875 -47.28125 L 93.671875 0 L 66.078125 0 L 51.640625 -47.28125 C 50.765625 -50.238281 49.707031 -53.945312 48.46875 -58.40625 C 47.238281 -62.863281 45.941406 -67.75 44.578125 -73.0625 C 43.210938 -78.375 41.867188 -83.804688 40.546875 -89.359375 C 39.234375 -94.910156 38.03125 -100.234375 36.9375 -105.328125 L 39.734375 -105.328125 C 39.734375 -100.617188 39.800781 -95.484375 39.9375 -89.921875 C 40.070312 -84.367188 40.222656 -78.859375 40.390625 -73.390625 C 40.554688 -67.921875 40.707031 -62.898438 40.84375 -58.328125 C 40.976562 -53.753906 41.046875 -50.070312 41.046875 -47.28125 L 41.046875 0 Z M 7.546875 0 "/></g></g></g><g fill="#000000" fill-opacity="1"><g transform="translate(160.279575, 164.034817)"><g><path d="M 7.546875 0 L 7.546875 -122.3125 L 97.203125 -122.3125 L 97.203125 -95.0625 L 40.96875 -95.0625 L 40.96875 -74.875 L 92.59375 -74.875 L 92.59375 -48.4375 L 40.96875 -48.4375 L 40.96875 -27.25 L 96.953125 -27.25 L 96.953125 0 Z M 7.546875 0 "/></g></g></g><g fill="#000000" fill-opacity="1"><g transform="translate(264.037312, 164.034817)"><g><path d="M 57.625 1.5625 C 46.894531 1.5625 37.578125 -0.0234375 29.671875 -3.203125 C 21.765625 -6.378906 15.660156 -11.222656 11.359375 -17.734375 C 7.066406 -24.242188 4.894531 -32.507812 4.84375 -42.53125 L 36.53125 -42.53125 C 36.75 -38.914062 37.707031 -35.832031 39.40625 -33.28125 C 41.101562 -30.738281 43.46875 -28.820312 46.5 -27.53125 C 49.539062 -26.25 53.164062 -25.609375 57.375 -25.609375 C 60.9375 -25.609375 63.945312 -26.046875 66.40625 -26.921875 C 68.875 -27.796875 70.765625 -29.015625 72.078125 -30.578125 C 73.390625 -32.140625 74.046875 -33.957031 74.046875 -36.03125 C 74.046875 -37.894531 73.429688 -39.535156 72.203125 -40.953125 C 70.972656 -42.378906 68.972656 -43.664062 66.203125 -44.8125 C 63.441406 -45.96875 59.789062 -46.984375 55.25 -47.859375 L 43.015625 -50.40625 C 31.960938 -52.707031 23.328125 -56.6875 17.109375 -62.34375 C 10.898438 -68.007812 7.796875 -75.578125 7.796875 -85.046875 C 7.796875 -92.816406 9.898438 -99.628906 14.109375 -105.484375 C 18.328125 -111.335938 24.15625 -115.894531 31.59375 -119.15625 C 39.039062 -122.414062 47.632812 -124.046875 57.375 -124.046875 C 67.34375 -124.046875 75.9375 -122.398438 83.15625 -119.109375 C 90.382812 -115.828125 95.96875 -111.175781 99.90625 -105.15625 C 103.84375 -99.132812 105.867188 -92.078125 105.984375 -83.984375 L 74.21875 -83.984375 C 73.9375 -88.035156 72.398438 -91.195312 69.609375 -93.46875 C 66.816406 -95.738281 62.769531 -96.875 57.46875 -96.875 C 54.125 -96.875 51.328125 -96.460938 49.078125 -95.640625 C 46.835938 -94.816406 45.15625 -93.679688 44.03125 -92.234375 C 42.914062 -90.785156 42.359375 -89.128906 42.359375 -87.265625 C 42.359375 -85.296875 42.929688 -83.597656 44.078125 -82.171875 C 45.234375 -80.753906 47.066406 -79.523438 49.578125 -78.484375 C 52.097656 -77.441406 55.300781 -76.507812 59.1875 -75.6875 L 69.203125 -73.640625 C 75.992188 -72.210938 81.835938 -70.363281 86.734375 -68.09375 C 91.628906 -65.820312 95.632812 -63.140625 98.75 -60.046875 C 101.875 -56.953125 104.160156 -53.445312 105.609375 -49.53125 C 107.054688 -45.625 107.78125 -41.316406 107.78125 -36.609375 C 107.78125 -28.453125 105.78125 -21.53125 101.78125 -15.84375 C 97.789062 -10.15625 92.0625 -5.832031 84.59375 -2.875 C 77.125 0.0820312 68.132812 1.5625 57.625 1.5625 Z M 57.625 1.5625 "/></g></g></g><g fill="#000000" fill-opacity="1"><g transform="translate(371.981338, 164.034817)"><g><path d="M 2.953125 0 L 42.9375 -122.3125 L 88.328125 -122.3125 L 129.546875 0 L 91.78125 0 L 77.65625 -47.453125 C 74.644531 -57.734375 71.785156 -68.304688 69.078125 -79.171875 C 66.367188 -90.035156 63.785156 -100.914062 61.328125 -111.8125 L 69.203125 -111.8125 C 66.847656 -100.914062 64.4375 -90.035156 61.96875 -79.171875 C 59.507812 -68.304688 56.773438 -57.734375 53.765625 -47.453125 L 40.0625 0 Z M 32.59375 -22.734375 L 32.59375 -47.859375 L 99.90625 -47.859375 L 99.90625 -22.734375 Z M 32.59375 -22.734375 "/></g></g></g><g fill="#000000" fill-opacity="1"><g transform="translate(504.469461, 164.034817)"><g><path d="M 7.546875 0 L 7.546875 -122.3125 L 60.09375 -122.3125 C 69.34375 -122.3125 77.414062 -120.640625 84.3125 -117.296875 C 91.207031 -113.960938 96.554688 -109.160156 100.359375 -102.890625 C 104.160156 -96.628906 106.0625 -89.175781 106.0625 -80.53125 C 106.0625 -71.832031 104.101562 -64.457031 100.1875 -58.40625 C 96.28125 -52.363281 90.78125 -47.765625 83.6875 -44.609375 C 76.601562 -41.460938 68.328125 -39.890625 58.859375 -39.890625 L 27.828125 -39.890625 L 27.828125 -65.84375 L 53.4375 -65.84375 C 57.269531 -65.84375 60.539062 -66.359375 63.25 -67.390625 C 65.957031 -68.429688 68.050781 -70.03125 69.53125 -72.1875 C 71.007812 -74.351562 71.75 -77.132812 71.75 -80.53125 C 71.75 -83.925781 71.007812 -86.71875 69.53125 -88.90625 C 68.050781 -91.09375 65.957031 -92.734375 63.25 -93.828125 C 60.539062 -94.921875 57.269531 -95.46875 53.4375 -95.46875 L 40.96875 -95.46875 L 40.96875 0 Z M 74.125 0 L 44.984375 -55.984375 L 80.125 -55.984375 L 110.078125 0 Z M 74.125 0 "/></g></g></g><g fill="#000000" fill-opacity="1"><g transform="translate(616.682121, 164.034817)"><g><path d="M 40.96875 -122.3125 L 40.96875 0 L 7.546875 0 L 7.546875 -122.3125 Z M 40.96875 -122.3125 "/></g></g></g></g></g><g transform="matrix(1, 0, 0, 1, 78, 423)"><g clip-path="url(#a4fc0bf300)"><g fill="#000000" fill-opacity="1"><g transform="translate(0.498307, 95.674335)"><g><path d="M 6.875 0 L 6.875 -71.203125 L 33.640625 -71.203125 C 39.054688 -71.203125 43.628906 -70.195312 47.359375 -68.1875 C 51.085938 -66.1875 53.921875 -63.429688 55.859375 -59.921875 C 57.804688 -56.421875 58.78125 -52.378906 58.78125 -47.796875 C 58.78125 -43.234375 57.800781 -39.191406 55.84375 -35.671875 C 53.882812 -32.148438 51.015625 -29.394531 47.234375 -27.40625 C 43.460938 -25.414062 38.867188 -24.421875 33.453125 -24.421875 L 15.25 -24.421875 L 15.25 -34.984375 L 32.015625 -34.984375 C 35.171875 -34.984375 37.769531 -35.53125 39.8125 -36.625 C 41.851562 -37.726562 43.375 -39.242188 44.375 -41.171875 C 45.375 -43.097656 45.875 -45.304688 45.875 -47.796875 C 45.875 -50.335938 45.375 -52.554688 44.375 -54.453125 C 43.375 -56.347656 41.84375 -57.828125 39.78125 -58.890625 C 37.726562 -59.960938 35.125 -60.5 31.96875 -60.5 L 19.640625 -60.5 L 19.640625 0 Z M 6.875 0 "/></g></g></g><g fill="#000000" fill-opacity="1"><g transform="translate(63.196649, 95.674335)"><g><path d="M 6.875 0 L 6.875 -71.203125 L 33.78125 -71.203125 C 39.164062 -71.203125 43.726562 -70.253906 47.46875 -68.359375 C 51.21875 -66.460938 54.0625 -63.800781 56 -60.375 C 57.945312 -56.957031 58.921875 -52.96875 58.921875 -48.40625 C 58.921875 -43.851562 57.929688 -39.90625 55.953125 -36.5625 C 53.984375 -33.21875 51.101562 -30.632812 47.3125 -28.8125 C 43.519531 -27 38.898438 -26.09375 33.453125 -26.09375 L 14.34375 -26.09375 L 14.34375 -36.65625 L 32.15625 -36.65625 C 35.3125 -36.65625 37.910156 -37.113281 39.953125 -38.03125 C 41.992188 -38.957031 43.515625 -40.296875 44.515625 -42.046875 C 45.515625 -43.804688 46.015625 -45.925781 46.015625 -48.40625 C 46.015625 -50.957031 45.515625 -53.132812 44.515625 -54.9375 C 43.515625 -56.738281 41.984375 -58.113281 39.921875 -59.0625 C 37.867188 -60.019531 35.265625 -60.5 32.109375 -60.5 L 19.640625 -60.5 L 19.640625 0 Z M 47.078125 0 L 29.96875 -32.265625 L 43.828125 -32.265625 L 61.265625 0 Z M 47.078125 0 "/></g></g></g><g fill="#000000" fill-opacity="1"><g transform="translate(126.80297, 95.674335)"><g><path d="M 37.421875 1 C 31.171875 1 25.566406 -0.460938 20.609375 -3.390625 C 15.660156 -6.328125 11.753906 -10.523438 8.890625 -15.984375 C 6.023438 -21.453125 4.59375 -27.976562 4.59375 -35.5625 C 4.59375 -43.207031 6.023438 -49.757812 8.890625 -55.21875 C 11.753906 -60.6875 15.660156 -64.882812 20.609375 -67.8125 C 25.566406 -70.75 31.171875 -72.21875 37.421875 -72.21875 C 43.660156 -72.21875 49.25 -70.75 54.1875 -67.8125 C 59.132812 -64.882812 63.03125 -60.6875 65.875 -55.21875 C 68.726562 -49.757812 70.15625 -43.207031 70.15625 -35.5625 C 70.15625 -27.976562 68.726562 -21.453125 65.875 -15.984375 C 63.03125 -10.523438 59.132812 -6.328125 54.1875 -3.390625 C 49.25 -0.460938 43.660156 1 37.421875 1 Z M 37.421875 -10.421875 C 41.273438 -10.421875 44.707031 -11.382812 47.71875 -13.3125 C 50.726562 -15.238281 53.082031 -18.070312 54.78125 -21.8125 C 56.488281 -25.5625 57.34375 -30.144531 57.34375 -35.5625 C 57.34375 -41.007812 56.488281 -45.609375 54.78125 -49.359375 C 53.082031 -53.117188 50.726562 -55.960938 47.71875 -57.890625 C 44.707031 -59.828125 41.273438 -60.796875 37.421875 -60.796875 C 33.535156 -60.796875 30.085938 -59.820312 27.078125 -57.875 C 24.066406 -55.925781 21.695312 -53.082031 19.96875 -49.34375 C 18.25 -45.601562 17.390625 -41.007812 17.390625 -35.5625 C 17.390625 -30.144531 18.25 -25.570312 19.96875 -21.84375 C 21.695312 -18.113281 24.066406 -15.273438 27.078125 -13.328125 C 30.085938 -11.390625 33.535156 -10.421875 37.421875 -10.421875 Z M 37.421875 -10.421875 "/></g></g></g><g fill="#000000" fill-opacity="1"><g transform="translate(201.591769, 95.674335)"><g><path d="M 30.96875 0 L 12.953125 0 L 12.953125 -10.984375 L 30.296875 -10.984375 C 35.328125 -10.984375 39.515625 -11.90625 42.859375 -13.75 C 46.210938 -15.601562 48.722656 -18.363281 50.390625 -22.03125 C 52.066406 -25.695312 52.90625 -30.253906 52.90625 -35.703125 C 52.90625 -41.085938 52.066406 -45.59375 50.390625 -49.21875 C 48.722656 -52.851562 46.25 -55.59375 42.96875 -57.4375 C 39.6875 -59.289062 35.59375 -60.21875 30.6875 -60.21875 L 12.609375 -60.21875 L 12.609375 -71.203125 L 31.453125 -71.203125 C 38.523438 -71.203125 44.597656 -69.773438 49.671875 -66.921875 C 54.753906 -64.078125 58.664062 -60 61.40625 -54.6875 C 64.144531 -49.382812 65.515625 -43.054688 65.515625 -35.703125 C 65.515625 -28.273438 64.144531 -21.898438 61.40625 -16.578125 C 58.664062 -11.265625 54.710938 -7.171875 49.546875 -4.296875 C 44.390625 -1.429688 38.195312 0 30.96875 0 Z M 19.640625 -71.203125 L 19.640625 0 L 6.875 0 L 6.875 -71.203125 Z M 19.640625 -71.203125 "/></g></g></g><g fill="#000000" fill-opacity="1"><g transform="translate(271.697308, 95.674335)"><g><path d="M 35.703125 1.046875 C 29.898438 1.046875 24.832031 -0.0390625 20.5 -2.21875 C 16.164062 -4.40625 12.800781 -7.429688 10.40625 -11.296875 C 8.019531 -15.171875 6.828125 -19.640625 6.828125 -24.703125 L 6.828125 -71.203125 L 19.5 -71.203125 L 19.5 -25.765625 C 19.5 -22.765625 20.164062 -20.101562 21.5 -17.78125 C 22.84375 -15.457031 24.71875 -13.625 27.125 -12.28125 C 29.53125 -10.945312 32.390625 -10.28125 35.703125 -10.28125 C 38.984375 -10.28125 41.832031 -10.945312 44.25 -12.28125 C 46.675781 -13.625 48.539062 -15.457031 49.84375 -17.78125 C 51.15625 -20.101562 51.8125 -22.765625 51.8125 -25.765625 L 51.8125 -71.203125 L 64.515625 -71.203125 L 64.515625 -24.703125 C 64.515625 -19.640625 63.316406 -15.171875 60.921875 -11.296875 C 58.535156 -7.429688 55.179688 -4.40625 50.859375 -2.21875 C 46.546875 -0.0390625 41.492188 1.046875 35.703125 1.046875 Z M 35.703125 1.046875 "/></g></g></g><g fill="#000000" fill-opacity="1"><g transform="translate(343.045345, 95.674335)"><g><path d="M 37.375 1 C 31.09375 1 25.472656 -0.460938 20.515625 -3.390625 C 15.566406 -6.328125 11.675781 -10.523438 8.84375 -15.984375 C 6.007812 -21.453125 4.59375 -27.976562 4.59375 -35.5625 C 4.59375 -43.207031 6.015625 -49.757812 8.859375 -55.21875 C 11.710938 -60.6875 15.613281 -64.882812 20.5625 -67.8125 C 25.519531 -70.75 31.125 -72.21875 37.375 -72.21875 C 41.320312 -72.21875 45 -71.648438 48.40625 -70.515625 C 51.820312 -69.378906 54.859375 -67.742188 57.515625 -65.609375 C 60.171875 -63.484375 62.359375 -60.878906 64.078125 -57.796875 C 65.804688 -54.722656 66.957031 -51.242188 67.53125 -47.359375 L 54.671875 -47.359375 C 54.253906 -49.492188 53.546875 -51.390625 52.546875 -53.046875 C 51.546875 -54.703125 50.285156 -56.109375 48.765625 -57.265625 C 47.253906 -58.429688 45.550781 -59.3125 43.65625 -59.90625 C 41.757812 -60.5 39.726562 -60.796875 37.5625 -60.796875 C 33.582031 -60.796875 30.070312 -59.796875 27.03125 -57.796875 C 23.988281 -55.804688 21.617188 -52.929688 19.921875 -49.171875 C 18.234375 -45.410156 17.390625 -40.875 17.390625 -35.5625 C 17.390625 -30.207031 18.242188 -25.648438 19.953125 -21.890625 C 21.660156 -18.128906 24.023438 -15.273438 27.046875 -13.328125 C 30.078125 -11.390625 33.582031 -10.421875 37.5625 -10.421875 C 39.726562 -10.421875 41.75 -10.710938 43.625 -11.296875 C 45.507812 -11.890625 47.207031 -12.757812 48.71875 -13.90625 C 50.238281 -15.050781 51.515625 -16.457031 52.546875 -18.125 C 53.578125 -19.800781 54.300781 -21.707031 54.71875 -23.84375 L 67.578125 -23.84375 C 67.066406 -20.3125 65.988281 -17.046875 64.34375 -14.046875 C 62.707031 -11.054688 60.582031 -8.425781 57.96875 -6.15625 C 55.351562 -3.894531 52.304688 -2.132812 48.828125 -0.875 C 45.359375 0.375 41.539062 1 37.375 1 Z M 37.375 1 "/></g></g></g><g fill="#000000" fill-opacity="1"><g transform="translate(414.871242, 95.674335)"><g><path d="M 3.578125 -60.40625 L 3.578125 -71.203125 L 60.3125 -71.203125 L 60.3125 -60.40625 L 38.328125 -60.40625 L 38.328125 0 L 25.609375 0 L 25.609375 -60.40625 Z M 3.578125 -60.40625 "/></g></g></g><g fill="#000000" fill-opacity="1"><g transform="translate(478.764316, 95.674335)"><g><path d="M 19.640625 -71.203125 L 19.640625 0 L 6.875 0 L 6.875 -71.203125 Z M 19.640625 -71.203125 "/></g></g></g><g fill="#000000" fill-opacity="1"><g transform="translate(505.239073, 95.674335)"><g><path d="M 37.421875 1 C 31.171875 1 25.566406 -0.460938 20.609375 -3.390625 C 15.660156 -6.328125 11.753906 -10.523438 8.890625 -15.984375 C 6.023438 -21.453125 4.59375 -27.976562 4.59375 -35.5625 C 4.59375 -43.207031 6.023438 -49.757812 8.890625 -55.21875 C 11.753906 -60.6875 15.660156 -64.882812 20.609375 -67.8125 C 25.566406 -70.75 31.171875 -72.21875 37.421875 -72.21875 C 43.660156 -72.21875 49.25 -70.75 54.1875 -67.8125 C 59.132812 -64.882812 63.03125 -60.6875 65.875 -55.21875 C 68.726562 -49.757812 70.15625 -43.207031 70.15625 -35.5625 C 70.15625 -27.976562 68.726562 -21.453125 65.875 -15.984375 C 63.03125 -10.523438 59.132812 -6.328125 54.1875 -3.390625 C 49.25 -0.460938 43.660156 1 37.421875 1 Z M 37.421875 -10.421875 C 41.273438 -10.421875 44.707031 -11.382812 47.71875 -13.3125 C 50.726562 -15.238281 53.082031 -18.070312 54.78125 -21.8125 C 56.488281 -25.5625 57.34375 -30.144531 57.34375 -35.5625 C 57.34375 -41.007812 56.488281 -45.609375 54.78125 -49.359375 C 53.082031 -53.117188 50.726562 -55.960938 47.71875 -57.890625 C 44.707031 -59.828125 41.273438 -60.796875 37.421875 -60.796875 C 33.535156 -60.796875 30.085938 -59.820312 27.078125 -57.875 C 24.066406 -55.925781 21.695312 -53.082031 19.96875 -49.34375 C 18.25 -45.601562 17.390625 -41.007812 17.390625 -35.5625 C 17.390625 -30.144531 18.25 -25.570312 19.96875 -21.84375 C 21.695312 -18.113281 24.066406 -15.273438 27.078125 -13.328125 C 30.085938 -11.390625 33.535156 -10.421875 37.421875 -10.421875 Z M 37.421875 -10.421875 "/></g></g></g><g fill="#000000" fill-opacity="1"><g transform="translate(580.02785, 95.674335)"><g><path d="M 6.875 0 L 6.875 -71.203125 L 21.125 -71.203125 L 45.828125 -31.875 C 46.785156 -30.375 47.828125 -28.628906 48.953125 -26.640625 C 50.085938 -24.648438 51.269531 -22.4375 52.5 -20 C 53.726562 -17.5625 54.929688 -14.925781 56.109375 -12.09375 L 54.671875 -11.375 C 54.453125 -13.925781 54.269531 -16.585938 54.125 -19.359375 C 53.976562 -22.128906 53.863281 -24.769531 53.78125 -27.28125 C 53.707031 -29.800781 53.671875 -31.890625 53.671875 -33.546875 L 53.671875 -71.203125 L 66.578125 -71.203125 L 66.578125 0 L 52.28125 0 L 30.015625 -35.40625 C 28.734375 -37.445312 27.460938 -39.554688 26.203125 -41.734375 C 24.953125 -43.921875 23.59375 -46.398438 22.125 -49.171875 C 20.65625 -51.941406 18.9375 -55.207031 16.96875 -58.96875 L 18.78125 -59.359375 C 19 -55.878906 19.179688 -52.59375 19.328125 -49.5 C 19.472656 -46.414062 19.582031 -43.671875 19.65625 -41.265625 C 19.738281 -38.859375 19.78125 -36.921875 19.78125 -35.453125 L 19.78125 0 Z M 6.875 0 "/></g></g></g></g></g></svg>